<svg width="32" height="32" viewBox="0 0 24 24" stroke="#ff0303" fill="none" stroke-linejoin="round" stroke-width="1.125" stroke-linecap="round" xmlns="http://www.w3.org/2000/svg"><path d="M11.519 12.3173L10.5492 8.92306C10.2739 7.95934 10.9975 7.00001 11.9998 7.00001C13.002 7.00001 13.7257 7.95934 13.4503 8.92306L12.4805 12.3173C12.3424 12.8009 11.6572 12.8009 11.519 12.3173Z"></path><path d="M12.9998 16C12.9998 16.5523 12.5521 17 11.9998 17C11.4475 17 10.9998 16.5523 10.9998 16C10.9998 15.4477 11.4475 15 11.9998 15C12.5521 15 12.9998 15.4477 12.9998 16Z"></path><path d="M3.36579 13.5C2.82989 12.5718 2.82989 11.4282 3.36579 10.5L6.38374 5.27277C6.91964 4.34456 7.91002 3.77277 8.98182 3.77277L15.0177 3.77277C16.0895 3.77277 17.0799 4.34456 17.6158 5.27277L20.6337 10.5C21.1696 11.4282 21.1696 12.5718 20.6337 13.5L17.6158 18.7272C17.0799 19.6555 16.0895 20.2272 15.0177 20.2272H8.98182C7.91002 20.2272 6.91964 19.6555 6.38374 18.7272L3.36579 13.5Z"></path></svg>