<svg width="32" height="32" viewBox="0 0 24 24" stroke="#D8000C" fill="none" stroke-linejoin="round" stroke-width="1.5" stroke-linecap="round" xmlns="http://www.w3.org/2000/svg"><path d="M10.2202 4.4703C10.9637 3.02048 13.036 3.02048 13.7795 4.4703L20.5062 17.5874C21.1887 18.9183 20.2223 20.5 18.7266 20.5H5.27316C3.77747 20.5 2.81101 18.9183 3.49352 17.5874L10.2202 4.4703Z"></path><path d="M11.5191 13.3173L10.5493 9.92306C10.274 8.95934 10.9976 8.00001 11.9999 8.00001C13.0021 8.00001 13.7258 8.95934 13.4504 9.92306L12.4806 13.3173C12.3425 13.8009 11.6573 13.8009 11.5191 13.3173Z"></path><path d="M12.9999 17C12.9999 17.5523 12.5522 18 11.9999 18C11.4476 18 10.9999 17.5523 10.9999 17C10.9999 16.4477 11.4476 16 11.9999 16C12.5522 16 12.9999 16.4477 12.9999 17Z"></path></svg>