<svg width="32" height="32" viewBox="0 0 24 24" stroke="#fff" fill="none" stroke-linejoin="round" stroke-width="1.5" stroke-linecap="round" xmlns="http://www.w3.org/2000/svg"><path d="M2.5 19C2.5 16.2888 4.96243 14.5 8 14.5C11.0376 14.5 13.5 16.2888 13.5 19M21.5 16.5C21.5 13.7888 19.0376 12 16 12C14.8924 12 13.8621 12.2256 13 12.6458M10.5 9C10.5 10.3807 9.38071 11.5 8 11.5C6.61929 11.5 5.5 10.3807 5.5 9C5.5 7.61929 6.61929 6.5 8 6.5C9.38071 6.5 10.5 7.61929 10.5 9ZM18.5 6.5C18.5 7.88071 17.3807 9 16 9C14.6193 9 13.5 7.88071 13.5 6.5C13.5 5.11929 14.6193 4 16 4C17.3807 4 18.5 5.11929 18.5 6.5Z"></path></svg>