<svg width="40" height="40" viewBox="0 0 33 33" fill="none" xmlns="http://www.w3.org/2000/svg">
    <path fill-rule="evenodd" clip-rule="evenodd" d="M2.05023 21.0283C-0.683411 18.2946 -0.683411 13.8625 2.05023 11.1288L11.1288 2.05026C13.8625 -0.683417 18.2946 -0.683417 21.0283 2.05025L30.1069 11.1288C32.8405 13.8625 32.8405 18.2946 30.1069 21.0283L21.0283 30.1069C18.2946 32.8405 13.8625 32.8405 11.1288 30.1069L2.05023 21.0283ZM19.9255 19.9255C20.2248 19.6261 20.7101 19.5783 21.0717 19.7985C21.7307 20.1997 22.5046 20.4308 23.3322 20.4308C25.736 20.4308 27.6845 18.4822 27.6845 16.0786C27.6845 13.6749 25.736 11.7263 23.3322 11.7263C22.5046 11.7263 21.7307 11.9574 21.0717 12.3586C20.7101 12.5788 20.2248 12.531 19.9255 12.2317C19.6262 11.9323 19.5783 11.4468 19.7985 11.0852C20.1996 10.4264 20.4308 9.65257 20.4308 8.82477C20.4308 6.42107 18.4821 4.47249 16.0786 4.47249C13.6747 4.47249 11.7263 6.42107 11.7263 8.82477C11.7263 9.65257 11.9575 10.4264 12.3586 11.0852C12.5788 11.4468 12.5309 11.9323 12.2316 12.2317C11.9323 12.531 11.4467 12.5788 11.0851 12.3586C10.4265 11.9574 9.65253 11.7263 8.82465 11.7263C6.42108 11.7263 4.47235 13.6749 4.47235 16.0786C4.47235 18.4822 6.42108 20.4308 8.82465 20.4308C9.65253 20.4308 10.4265 20.1997 11.0851 19.7985C11.4467 19.5783 11.9323 19.6261 12.2316 19.9255C12.5309 20.2248 12.5788 20.7103 12.3586 21.0719C11.9575 21.7307 11.7263 22.5045 11.7263 23.3323C11.7263 25.736 13.6747 27.6846 16.0786 27.6846C18.4821 27.6846 20.4308 25.736 20.4308 23.3323C20.4308 22.5045 20.1996 21.7307 19.7985 21.0719C19.5783 20.7103 19.6262 20.2248 19.9255 19.9255ZM14.5344 13.6173C14.0449 13.6564 13.6564 14.045 13.6171 14.5343L13.6147 14.5646C13.5383 15.52 13.5383 16.48 13.6147 17.4354L13.6171 17.4657C13.6564 17.955 14.0449 18.3436 14.5344 18.3828L14.5646 18.3852C15.52 18.4616 16.4799 18.4616 17.4352 18.3852L17.4655 18.3828C17.955 18.3436 18.3434 17.955 18.3828 17.4657L18.3852 17.4354C18.4616 16.48 18.4616 15.52 18.3852 14.5646L18.3828 14.5343C18.3434 14.045 17.955 13.6564 17.4655 13.6173L17.4352 13.6148C16.4799 13.5384 15.52 13.5384 14.5646 13.6148L14.5344 13.6173Z" fill="#A87EE6"/>
</svg>